HIERARCHY
ROOT Hips
{
	OFFSET 0.00000 0.00000 0.00000
	CHANNELS 6 Xposition Yposition Zposition Yrotation Zrotation Xrotation 
	JOINT Lumbar
	{
		OFFSET 0 0 0
		CHANNELS 3 Zrotation Xrotation Yrotation
		JOINT Neck
		{
			OFFSET 0.00 0.2701 0.00
			CHANNELS 3 Zrotation Xrotation Yrotation
			End Site
			{
				OFFSET 0.00 0.1379 0.00
			}
		}
		JOINT RightShoulder
		{
			OFFSET 0.0119 0.2289 0.1181
			CHANNELS 3 Zrotation Xrotation Yrotation
			JOINT RightElbow
			{
				OFFSET 0.00 -0.1475 0.00
				CHANNELS 2 Zrotation Yrotation
				JOINT RightWrist
				{
					OFFSET 0.00 -0.1605 0.00
					CHANNELS 2 Zrotation Xrotation
					End Site
					{
						OFFSET 0.0040 -0.1068 0.0006
					}
				}
			}
		}
		JOINT LeftShoulder
		{
			OFFSET 0.0119 0.2289 -0.1181
			CHANNELS 3 Zrotation Xrotation Yrotation
			JOINT LeftElbow
			{
				OFFSET 0.00 -0.1475 0.00
				CHANNELS 2 Zrotation Yrotation
				JOINT LeftWrist
				{
					OFFSET 0.00 -0.1605 0.00
					CHANNELS 2 Zrotation Xrotation
					End Site
					{
						OFFSET 0.0040 -0.1068 -0.0006
					}
				}
			}
		}
	}
	JOINT RightHip
	{
		OFFSET 0.0316 -0.0424 0.0458
		CHANNELS 3 Zrotation Xrotation Yrotation
		JOINT RightKnee
		{
			OFFSET 0.00 -0.2438 0.00
			CHANNELS 1 Zrotation
			JOINT RightAnkle
			{
				OFFSET 0.00 -0.2449 0.00
				CHANNELS 3 Zrotation Xrotation Yrotation
				End Site
				{
					OFFSET 0.1237 -0.0542 0.0051
				}
			}
		}
	}
	JOINT LeftHip
	{
		OFFSET 0.0316 -0.0424 -0.0458
		CHANNELS 3 Zrotation Xrotation Yrotation
		JOINT LeftKnee
		{
			OFFSET 0.00 -0.2438 0.00
			CHANNELS 1 Zrotation
			JOINT LeftAnkle
			{
				OFFSET 0.00 -0.2449 0.00
				CHANNELS 3 Zrotation Xrotation Yrotation
				End Site
				{
					OFFSET 0.1237 -0.0542 -0.0051
				}
			}
		}
	}
}
MOTION
Frames: 22
Frame Time: 0.02
0.01286 0.01148 0.04162 49.86515 -48.41319 -7.66882 34.652 6.57401 -4.97502 27.66029 -21.32975 -0.83078 152.39345 11.38497 64.11744 36.7438 71.65399 21.44648 -5.00417 127.05975 0.53907 -61.28558 65.85914 -52.36866 51.95472 6.03061 64.94951 -1.99693 -4.71971 -17.0383 -8.64789 -3.56021 -2.60721 68.07813 1.34793 3.39512 -23.51506 -8.8077 2.16561 1.78601
0.01319 0.01146 0.04159 49.45015 -48.76294 -7.74492 34.64081 6.54112 -4.95965 27.49 -21.73445 -0.83078 152.10881 11.21412 63.54337 37.89069 71.2437 22.74788 -4.98059 127.47105 1.05864 -61.21571 67.13517 -51.25855 51.61456 6.16552 65.3508 -1.95115 -4.81314 -17.0177 -8.61131 -3.48784 -2.56515 68.43995 1.46174 3.44557 -23.50199 -8.80058 2.17359 1.79901
0.01348 0.0114 0.04166 49.0549 -49.04293 -7.82504 34.62412 6.49496 -4.88191 27.23845 -22.09385 -0.83078 151.57654 10.99871 62.82393 38.63819 71.42071 24.08826 -5.01399 127.99976 1.30918 -61.2333 67.09856 -50.31771 51.21172 6.29783 65.73132 -1.90815 -4.87471 -17.06805 -8.57581 -3.41659 -2.52317 68.77233 1.58319 3.49801 -23.53808 -8.79034 2.1746 1.80969
0.01378 0.01136 0.0417 48.65745 -49.35117 -7.90309 34.60789 6.45607 -4.83075 27.02952 -22.46692 -0.83078 151.18261 10.81483 62.20997 39.51188 71.31302 25.38727 -5.05075 128.46946 1.67559 -61.2071 67.63679 -49.32637 50.8349 6.4292 66.11743 -1.86318 -4.94598 -17.08658 -8.54034 -3.34708 -2.48246 69.11318 1.69869 3.54348 -23.55403 -8.78076 2.17982 1.82171
0.01411 0.01132 0.04171 48.22778 -49.67455 -7.98361 34.59978 6.41117 -4.78546 26.79926 -22.86957 -0.83078 150.68447 10.58312 61.43544 40.59845 71.26079 26.79244 -4.96569 128.96957 2.08855 -61.19646 68.27836 -48.23463 50.44761 6.57005 66.52204 -1.82124 -5.04141 -17.10536 -8.50214 -3.26743 -2.43588 69.47163 1.82424 3.60785 -23.56997 -8.77228 2.18246 1.83358
0.01438 0.01126 0.04179 47.87176 -49.94874 -8.05936 34.5737 6.37574 -4.71418 26.59256 -23.19817 -0.83078 150.33813 10.43878 60.95322 41.16077 71.24188 27.97876 -5.13944 129.43039 2.33223 -61.17483 68.38274 -47.3876 50.07546 6.69019 66.88121 -1.77372 -5.07838 -17.13953 -8.47003 -3.20926 -2.40161 69.78663 1.93086 3.63592 -23.59411 -8.76154 2.1881 1.84478
0.01451 0.01112 0.04208 47.70856 -50.11436 -8.12115 34.49893 6.37194 -4.58095 26.47714 -23.35092 -0.83078 150.52868 10.56683 61.37854 40.29607 71.15111 28.60993 -6.11196 129.77128 2.18708 -61.10185 67.39141 -47.18108 49.75701 6.75535 67.13341 -1.70892 -4.94954 -17.20115 -8.45522 -3.21207 -2.40245 70.00088 1.98263 3.56215 -23.62812 -8.74596 2.20423 1.85492
0.01458 0.01095 0.04244 47.6202 -50.23087 -8.17773 34.40658 6.37778 -4.42491 26.38664 -23.42667 -0.83078 150.86987 10.77994 62.08977 38.93281 71.08111 29.01021 -7.32672 130.06543 1.87706 -61.0158 65.88968 -47.21365 49.45873 6.79933 67.33781 -1.63862 -4.76419 -17.27522 -8.44646 -3.23627 -2.41557 70.17055 2.01503 3.45218 -23.66749 -8.72843 2.2234 1.86432
0.01468 0.0108 0.04276 47.50194 -50.36342 -8.23641 34.32237 6.37801 -4.28305 26.28041 -23.52764 -0.83078 151.10487 10.94235 62.62921 37.85176 71.01582 29.47527 -8.36599 130.36791 1.62991 -60.93453 64.57976 -47.12941 49.15753 6.85205 67.55536 -1.57158 -4.61239 -17.34166 -8.43453 -3.24946 -2.42235 70.35367 2.0571 3.36146 -23.70359 -8.71168 2.24042 1.87364
0.01477 0.01063 0.04312 47.36745 -50.52067 -8.29653 34.23658 6.38329 -4.12285 26.19043 -23.67231 -0.83078 151.49095 11.15788 63.34532 36.5262 70.90596 30.10379 -9.67901 130.72584 1.41952 -60.85751 63.4016 -47.08012 48.83086 6.90882 67.80902 -1.50139 -4.4277 -17.4185 -8.42438 -3.26792 -2.43219 70.56543 2.0967 3.26203 -23.74514 -8.69518 2.25997 1.88436
0.01487 0.0105 0.04342 47.28367 -50.61492 -8.35215 34.15092 6.38006 -3.99629 26.07299 -23.7032 -0.83078 151.60079 11.27872 63.75691 35.59105 70.89254 30.3458 -10.48395 130.9597 1.10324 -60.77202 61.83486 -47.01956 48.55857 6.95168 67.97558 -1.43646 -4.29684 -17.47624 -8.412 -3.28074 -2.43874 70.70611 2.13557 3.1682 -23.77589 -8.67782 2.27572 1.89239
0.01503 0.01045 0.0436 47.32672 -50.55406 -8.3983 34.06223 6.35503 -3.96837 25.87902 -23.48192 -0.83078 150.9186 11.15763 63.32024 35.90494 71.07394 29.49513 -9.78214 130.8245 0.48526 -60.62495 59.41926 -46.80836 48.4663 6.96569 67.91955 -1.38685 -4.34264 -17.47318 -8.39148 -3.27053 -2.43198 70.67166 2.18811 3.13633 -23.77512 -8.65786 2.27395 1.88982
0.01521 0.01044 0.04373 47.41703 -50.43033 -8.43978 33.97596 6.32043 -3.97551 25.65591 -23.14083 -0.83078 149.95436 10.93009 62.56175 36.61991 71.35355 28.27743 -8.56959 130.57102 -0.21983 -60.47606 56.62408 -46.588 48.41944 6.96585 67.77603 -1.34272 -4.44208 -17.45098 -8.36859 -3.25434 -2.42174 70.56505 2.23913 3.10693 -23.76307 -8.63719 2.2691 1.88502
0.01538 0.01042 0.04386 47.4824 -50.33152 -8.48222 33.89334 6.28759 -3.9666 25.44308 -22.82672 -0.83078 149.11378 10.72625 61.90337 37.12368 71.63849 27.2827 -7.61862 130.39785 -0.85529 -60.35607 53.93683 -46.41105 48.33252 6.9692 67.6691 -1.29658 -4.50778 -17.44057 -8.34715 -3.24234 -2.41391 70.48546 2.28278 3.04839 -23.75614 -8.61738 2.27028 1.88371
0.01552 0.01038 0.04407 47.56556 -50.2473 -8.52924 33.78912 6.26591 -3.95672 25.24377 -22.62647 -0.83078 148.29187 10.63334 61.4273 37.73993 71.74487 26.0474 -6.548 130.11718 -1.63669 -60.12152 51.4797 -46.07717 48.33852 6.98397 67.57554 -1.24864 -4.61097 -17.41786 -8.32443 -3.22485 -2.40298 70.43039 2.35715 3.09617 -23.74948 -8.59544 2.2535 1.87272
0.01576 0.01038 0.0441 47.62122 -50.11725 -8.56585 33.73186 6.21871 -3.95827 25.00882 -22.16085 -0.83078 147.36909 10.27823 60.51947 38.21363 72.20694 25.22325 -5.6068 130.0252 -2.11607 -60.11985 48.48983 -46.06447 48.14865 6.97314 67.43187 -1.20529 -4.64961 -17.41569 -8.30366 -3.21714 -2.39754 70.30556 2.37074 2.937 -23.73947 -8.57753 2.2715 1.88037
0.01626 0.01047 0.04374 47.59509 -49.88619 -8.57326 33.79421 6.10245 -3.97603 24.68425 -20.9987 -0.83078 146.17249 9.26297 58.24987 38.29288 73.97016 25.67048 -5.10682 130.54663 -1.88014 -60.80518 43.87362 -46.95258 47.51201 6.88547 67.18917 -1.17809 -4.49654 -17.47778 -8.28935 -3.23724 -2.40793 70.02396 2.18779 2.0876 -23.72309 -8.57319 2.40273 1.94886
0.01687 0.01062 0.04319 47.53831 -49.60951 -8.57058 33.90572 5.9611 -4.00522 24.32409 -19.57289 -0.83078 144.89227 7.97852 55.5975 38.20492 76.02945 26.53372 -4.76108 131.24843 -1.31021 -61.71459 38.78614 -48.16741 46.65373 6.77488 66.89577 -1.15458 -4.277 -17.5606 -8.2769 -3.26739 -2.42392 69.67136 1.94866 1.0499 -23.70369 -8.57249 2.5663 2.03472
0.01746 0.01075 0.04269 47.49129 -49.34735 -8.57368 34.00089 5.83162 -4.03404 23.97943 -18.26339 -0.83078 143.69568 6.79396 53.28725 38.12504 77.72088 27.18104 -4.37059 131.82886 -0.80055 -62.49586 34.07641 -49.21545 45.83197 6.68054 66.61427 -1.12613 -4.08836 -17.63191 -8.2633 -3.29331 -2.43743 69.33971 1.75521 0.17889 -23.6855 -8.56863 2.70384 2.10661
0.01795 0.01083 0.04235 47.46315 -49.10932 -8.57195 34.07034 5.6993 -4.04471 23.6379 -16.96372 -0.83078 142.30942 5.7066 50.27367 38.32216 80.37738 27.94089 -3.85584 132.57973 -0.68055 -63.3975 28.65128 -50.31371 45.29614 6.55911 66.37744 -1.11115 -3.89859 -17.71128 -8.25113 -3.31773 -2.45061 69.05377 1.47912 -1.02545 -23.66745 -8.57116 2.88776 2.20336
0.01866 0.01102 0.04163 47.38833 -48.81085 -8.57748 34.2056 5.56774 -4.09417 23.28016 -15.58351 -0.83078 141.28605 4.34661 48.6161 37.9268 81.12213 28.55484 -3.64267 133.00962 0.3317 -64.08989 24.62333 -51.41879 44.09489 6.49133 66.03578 -1.06954 -3.69475 -17.77915 -8.23618 -3.34756 -2.46578 68.65611 1.35871 -1.59164 -23.64873 -8.56121 2.98448 2.25339
0.01989 0.01147 0.03992 47.18634 -48.35865 -8.60991 34.50572 5.4387 -4.25888 22.90044 -14.03787 -0.83078 141.41886 2.36589 50.98193 35.68637 76.27403 28.79426 -4.22828 132.58899 3.72407 -64.24044 24.45583 -52.15766 41.26176 6.55325 65.42538 -0.94813 -3.46839 -17.80941 -8.2153 -3.39129 -2.48577 67.97313 1.7091 -0.25079 -23.62748 -8.51626 2.81795 2.16224
